<?xml version="1.0" standalone="no"?>

<svg version="1.0" xmlns="http://www.w3.org/2000/svg"
 width="359.000000pt" height="359.000000pt" viewBox="0 0 720.000000 359.000000"
 preserveAspectRatio="xMidYMid meet">
<g transform="translate(0.000000,359.000000) scale(0.100000,-0.100000)"
fill="#d66c27" stroke="none">
<path d="M0 1795 l0 -1795 3600 0 3600 0 0 1795 0 1795 -3600 0 -3600 0 0
-1795z m5799 1335 c96 -20 265 -72 327 -101 l29 -14 3 -292 2 -291 -115 -46
-115 -46 -60 30 c-132 67 -264 90 -398 72 -275 -39 -463 -179 -568 -420 -30
-70 -37 -78 -71 -89 -133 -41 -428 -131 -538 -164 -71 -22 -143 -44 -159 -49
l-29 -10 6 102 c17 266 110 526 265 739 75 104 266 293 351 347 167 108 374
196 546 231 132 28 388 28 524 1z m-3734 -125 c65 -175 124 -332 200 -530 42
-110 94 -247 115 -305 21 -58 49 -132 62 -166 13 -33 50 -131 83 -217 53 -139
75 -182 75 -146 0 10 90 254 362 979 44 118 98 262 118 320 21 58 42 116 47
129 l10 24 354 -2 c194 -1 355 -3 356 -5 2 -2 16 -86 33 -211 12 -87 47 -324
65 -440 78 -503 99 -649 99 -690 1 -38 -1 -41 -39 -53 -77 -24 -542 -160 -560
-164 -17 -3 -21 16 -46 190 -15 107 -30 196 -32 199 -3 2 -8 -6 -12 -19 -8
-26 -88 -240 -138 -368 l-33 -85 -84 -21 c-47 -12 -146 -36 -220 -53 -74 -18
-180 -43 -235 -56 -98 -23 -239 -57 -400 -95 -44 -10 -96 -21 -115 -25 l-35
-6 -128 323 c-70 178 -130 333 -133 346 -11 40 -22 23 -28 -45 -4 -38 -11 -97
-16 -133 -5 -36 -14 -108 -20 -160 -17 -144 -28 -236 -41 -331 l-12 -86 -81
-16 c-111 -23 -389 -80 -510 -106 -55 -12 -103 -21 -108 -21 -5 0 -7 15 -4 33
3 17 15 89 26 159 70 439 69 437 95 608 18 122 46 298 76 476 12 69 22 136 24
147 1 12 12 79 24 150 19 112 37 228 72 447 19 123 -5 109 192 113 94 1 248 3
341 2 l168 0 33 -90z m4864 -499 c-2 -2 -94 -53 -204 -112 -443 -238 -1074
-532 -1597 -744 -153 -62 -278 -118 -278 -124 0 -32 34 -139 65 -201 161 -330
561 -480 918 -343 103 39 166 79 250 158 l67 62 0 -420 0 -420 -52 -22 c-165
-71 -299 -100 -493 -107 -258 -10 -465 34 -700 147 -158 76 -276 160 -401 284
-153 152 -252 308 -312 491 -37 114 -37 114 5 131 21 8 47 19 58 24 17 9 16 9
-5 4 -14 -4 -48 -15 -76 -26 l-51 -18 7 -43 c5 -23 13 -80 20 -127 6 -47 15
-107 20 -135 5 -27 12 -68 14 -90 3 -22 12 -85 21 -140 8 -55 24 -161 35 -235
11 -74 23 -152 26 -173 l7 -37 -351 0 c-325 0 -351 1 -356 17 -3 10 -10 61
-16 113 -6 52 -15 133 -21 180 -5 47 -14 119 -18 160 -22 183 -34 276 -37 287
-2 8 -19 6 -61 -7 -88 -29 -216 -67 -337 -100 -60 -16 -110 -31 -111 -32 -1
-2 -56 -140 -121 -308 l-119 -305 -145 0 -145 0 -80 218 c-63 170 -83 216 -95
211 -8 -3 -49 -12 -90 -21 -41 -8 -91 -18 -110 -23 -74 -17 -261 -57 -379 -81
-24 -5 -46 -10 -47 -12 -1 -1 -7 -58 -13 -127 -6 -69 -14 -135 -16 -147 l-5
-23 -356 0 -356 0 6 23 c11 39 28 148 25 151 -2 2 -42 -3 -89 -9 -231 -33
-629 -73 -595 -61 6 2 73 19 150 36 77 18 239 57 360 87 121 30 227 56 235 58
8 2 58 15 110 28 117 32 275 73 485 127 88 23 207 55 265 71 58 17 137 39 175
49 623 170 1649 486 2345 722 129 44 325 110 435 148 110 37 274 95 365 128
91 33 219 79 285 102 111 39 349 127 770 286 94 35 289 111 435 168 242 96
291 114 279 102z"/>
</g>
</svg>
